<?xml version="1.0" encoding="UTF-8"?>
<svg id="Layer_1" xmlns="http://www.w3.org/2000/svg" version="1.1" viewBox="0 0 504.9 77.9">
  <!-- Generator: Adobe Illustrator 29.4.0, SVG Export Plug-In . SVG Version: 2.1.0 Build 152)  -->
  <defs>
    <style>
      .st0 {
        fill: #231f20;
      }
    </style>
  </defs>
  <path class="st0" d="M239.4,36.4c.2.4.3.7.3,1.1,0,.2-.1.6-.2,1s-.2.9-.4,1.3"/>
  <g>
    <path d="M5.7,23.3h16.7v3.4h-12.7v10.3h11.7v3.3h-11.7v14h-4v-31Z"/>
    <path d="M28.1,23.7c2-.4,4.9-.6,7.7-.6,4.3,0,7,.8,9,2.5,1.6,1.4,2.4,3.5,2.4,5.9,0,4.1-2.6,6.8-5.8,7.9h0c2.4,1,3.8,3.2,4.6,6.4,1,4.3,1.7,7.3,2.4,8.5h-4.1c-.5-.9-1.2-3.5-2.1-7.4-.9-4.3-2.6-5.9-6.2-6h-3.8v13.4h-4v-30.6ZM32.1,37.8h4.1c4.3,0,7-2.3,7-5.9s-2.9-5.8-7.1-5.8c-1.9,0-3.3.2-4,.4v11.3Z"/>
    <path d="M68.9,39.8h-12.1v11.2h13.4v3.4h-17.4v-31h16.7v3.4h-12.7v9.8h12.1v3.3Z"/>
    <path d="M91.5,39.8h-12.1v11.2h13.4v3.4h-17.4v-31h16.7v3.4h-12.7v9.8h12.1v3.3Z"/>
    <path d="M107.8,23.7c2.4-.4,5.3-.6,8.5-.6,5.8,0,9.8,1.3,12.6,3.9,2.8,2.5,4.4,6.1,4.4,11.1s-1.6,9.2-4.5,12.1c-2.9,2.9-7.7,4.5-13.7,4.5s-5.2-.1-7.3-.4v-30.5ZM111.8,51.1c1,.2,2.5.2,4,.2,8.6,0,13.2-4.8,13.2-13.2,0-7.3-4.1-12-12.6-12s-3.6.2-4.7.4v24.5Z"/>
    <path d="M154.5,39.8h-12.1v11.2h13.4v3.4h-17.4v-31h16.7v3.4h-12.7v9.8h12.1v3.3Z"/>
    <path d="M161.1,23.3h4v27.6h13.2v3.4h-17.3v-31Z"/>
    <path d="M186.8,23.3v31h-4v-31h4Z"/>
    <path d="M200.6,54.3l-10.1-31h4.3l4.8,15.3c1.3,4.2,2.5,8,3.3,11.6h0c.9-3.6,2.2-7.5,3.5-11.5l5.2-15.3h4.3l-11.1,31h-4.4Z"/>
    <path d="M235.5,39.8h-12.1v11.2h13.4v3.4h-17.4v-31h16.7v3.4h-12.7v9.8h12.1v3.3Z"/>
    <path d="M242.1,23.7c2-.4,4.9-.6,7.7-.6,4.3,0,7,.8,9,2.5,1.6,1.4,2.4,3.5,2.4,5.9,0,4.1-2.6,6.8-5.8,7.9h0c2.4,1,3.8,3.2,4.6,6.4,1,4.3,1.7,7.3,2.4,8.5h-4.1c-.5-.9-1.2-3.5-2.1-7.4-.9-4.3-2.6-5.9-6.2-6h-3.8v13.4h-4v-30.6ZM246.1,37.8h4.1c4.3,0,7-2.3,7-5.9s-2.9-5.8-7.1-5.8c-1.9,0-3.3.2-4,.4v11.3Z"/>
    <path d="M273.2,54.3v-13.2l-9.8-17.8h4.6l4.4,8.6c1.2,2.3,2.1,4.2,3.1,6.4h0c.9-2,1.9-4,3.1-6.4l4.5-8.6h4.6l-10.4,17.8v13.2h-4Z"/>
    <path d="M301,23.3h16.7v3.4h-12.7v10.3h11.7v3.3h-11.7v14h-4v-31Z"/>
    <path d="M323.4,23.7c2-.4,4.9-.6,7.7-.6,4.3,0,7,.8,9,2.5,1.6,1.4,2.4,3.5,2.4,5.9,0,4.1-2.6,6.8-5.8,7.9h0c2.4,1,3.8,3.2,4.6,6.4,1,4.3,1.7,7.3,2.4,8.5h-4.1c-.5-.9-1.2-3.5-2.1-7.4-.9-4.3-2.6-5.9-6.2-6h-3.8v13.4h-4v-30.6ZM327.4,37.8h4.1c4.3,0,7-2.3,7-5.9s-2.9-5.8-7.1-5.8c-1.9,0-3.3.2-4,.4v11.3Z"/>
    <path d="M374.8,38.5c0,10.7-6.5,16.3-14.4,16.3s-13.9-6.3-13.9-15.7,6.1-16.3,14.4-16.3,13.9,6.5,13.9,15.7ZM350.7,39c0,6.6,3.6,12.6,9.9,12.6s9.9-5.8,9.9-12.9-3.2-12.6-9.9-12.6-9.9,6.1-9.9,12.9Z"/>
    <path d="M406.1,40.7c-.2-4.3-.5-9.5-.5-13.4h-.1c-1.1,3.6-2.3,7.5-3.9,11.8l-5.5,15h-3l-5-14.8c-1.5-4.4-2.7-8.4-3.6-12.1h0c0,3.9-.3,9.1-.6,13.7l-.8,13.3h-3.8l2.2-31h5.1l5.3,15c1.3,3.8,2.3,7.2,3.1,10.4h.1c.8-3.1,1.9-6.5,3.3-10.4l5.5-15h5.1l1.9,31h-3.9l-.8-13.6Z"/>
    <path d="M427.6,51.5c.9,0,1.9,0,3.3-.1,2.3-.3,4.6-1.3,6.3-2.9,2-1.8,3.4-4.4,4-8h-.1c-1.7,2-4,3.2-7,3.2-5.4,0-8.8-4-8.8-9.2s4.1-10.6,10.2-10.6,9.9,5,9.9,12.6-2.2,11.2-5.2,14c-2.3,2.3-5.5,3.6-8.7,4-1.5.2-2.8.3-3.7.2v-3.3ZM429.1,34.2c0,3.7,2.3,6.3,5.8,6.3s4.8-1.3,5.9-3.1c.2-.4.4-.8.4-1.5,0-5.1-1.9-9-6.1-9s-5.9,3-5.9,7.3Z"/>
    <path d="M466.7,27.8h-11.4l-1.1,7.7c.7,0,1.3-.2,2.4-.2,2.3,0,4.6.5,6.4,1.6,2.3,1.3,4.3,3.9,4.3,7.7,0,5.8-4.6,10.2-11.1,10.2s-6-.9-7.5-1.8l1-3.1c1.2.7,3.7,1.7,6.4,1.7s7.1-2.5,7.1-6.5c0-3.9-2.6-6.6-8.6-6.6s-3,.2-4.1.3l1.9-14.4h14.3v3.4Z"/>
    <path d="M490.2,58.3v-4.6c-2.7,0-5.4-.9-7-2l1.1-3.1c1.7,1.1,4,2,6.6,2s5.5-1.9,5.5-4.5-1.8-4.1-5.2-5.5c-4.7-1.8-7.6-4-7.6-8s2.7-6.7,6.9-7.4v-4.6h2.9v4.5c2.8,0,4.6.8,6,1.6l-1.2,3c-1-.6-2.9-1.6-5.8-1.6s-4.9,2.1-4.9,4,1.7,3.6,5.7,5.2c4.7,1.9,7.1,4.3,7.1,8.4s-2.5,7-7.3,7.8v4.8h-2.9Z"/>
  </g>
</svg>