<?xml version="1.0" encoding="UTF-8"?>
<svg id="Layer_1" data-name="Layer 1" xmlns="http://www.w3.org/2000/svg" viewBox="0 0 248.36 123.88">
  <defs>
    <style>
      .cls-1 {
        fill: #231f20;
      }
    </style>
  </defs>
  <path class="cls-1" d="M24.19,46.19h-11.14v7.14h9.31c.86,0,1.51.19,1.93.58s.64.9.64,1.55-.22,1.16-.65,1.54-1.07.57-1.92.57h-9.31v9.2c0,1.17-.26,2.03-.79,2.6-.53.56-1.2.85-2.03.85s-1.52-.29-2.05-.86-.79-1.43-.79-2.59v-21.48c0-.81.12-1.48.36-1.99.24-.51.62-.89,1.13-1.12.51-.23,1.17-.35,1.97-.35h13.33c.9,0,1.57.2,2.01.6.44.4.66.92.66,1.57s-.22,1.19-.66,1.59c-.44.4-1.11.6-2.01.6Z"/>
  <path class="cls-1" d="M34.37,62.72v4.34c0,1.05-.25,1.84-.74,2.37-.5.53-1.12.79-1.89.79s-1.36-.27-1.85-.8-.72-1.32-.72-2.36v-14.47c0-2.34.84-3.5,2.53-3.5.86,0,1.49.27,1.87.82s.59,1.35.63,2.42c.62-1.07,1.26-1.87,1.91-2.42s1.53-.82,2.62-.82,2.15.27,3.18.82,1.54,1.27,1.54,2.17c0,.63-.22,1.16-.66,1.57-.44.41-.91.62-1.42.62-.19,0-.65-.12-1.38-.35s-1.37-.35-1.93-.35c-.76,0-1.38.2-1.87.6-.48.4-.86.99-1.12,1.78s-.45,1.72-.55,2.81c-.1,1.08-.15,2.41-.15,3.97Z"/>
  <path class="cls-1" d="M59.83,60.93h-10.17c.01,1.18.25,2.22.71,3.12.46.9,1.08,1.58,1.85,2.04s1.62.69,2.54.69c.62,0,1.19-.07,1.7-.22.51-.15,1.01-.37,1.49-.69s.93-.64,1.33-1,.93-.84,1.58-1.45c.27-.23.65-.34,1.14-.34.53,0,.96.15,1.29.44s.5.7.5,1.24c0,.47-.18,1.02-.55,1.65-.37.63-.92,1.23-1.67,1.81-.74.58-1.68,1.06-2.8,1.44-1.12.38-2.42.57-3.88.57-3.34,0-5.94-.95-7.79-2.86s-2.78-4.49-2.78-7.75c0-1.54.23-2.96.69-4.28.46-1.31,1.12-2.44,2-3.38s1.96-1.66,3.24-2.16,2.7-.75,4.27-.75c2.03,0,3.77.43,5.23,1.29,1.45.86,2.54,1.96,3.27,3.32s1.09,2.74,1.09,4.15c0,1.31-.37,2.16-1.12,2.54s-1.8.58-3.16.58ZM49.66,57.98h9.43c-.13-1.78-.61-3.11-1.44-3.99-.83-.88-1.93-1.32-3.29-1.32s-2.36.45-3.19,1.34c-.83.9-1.34,2.22-1.51,3.97Z"/>
  <path class="cls-1" d="M83.01,60.93h-10.17c.01,1.18.25,2.22.71,3.12.46.9,1.08,1.58,1.85,2.04s1.62.69,2.54.69c.62,0,1.19-.07,1.7-.22.51-.15,1.01-.37,1.49-.69s.93-.64,1.33-1,.93-.84,1.58-1.45c.27-.23.65-.34,1.14-.34.53,0,.96.15,1.29.44s.5.7.5,1.24c0,.47-.18,1.02-.55,1.65-.37.63-.92,1.23-1.67,1.81-.74.58-1.68,1.06-2.8,1.44-1.12.38-2.42.57-3.88.57-3.34,0-5.94-.95-7.79-2.86s-2.78-4.49-2.78-7.75c0-1.54.23-2.96.69-4.28.46-1.31,1.12-2.44,2-3.38s1.96-1.66,3.24-2.16,2.7-.75,4.27-.75c2.03,0,3.77.43,5.23,1.29,1.45.86,2.54,1.96,3.27,3.32s1.09,2.74,1.09,4.15c0,1.31-.37,2.16-1.12,2.54s-1.8.58-3.16.58ZM72.84,57.98h9.43c-.13-1.78-.61-3.11-1.44-3.99-.83-.88-1.93-1.32-3.29-1.32s-2.36.45-3.19,1.34c-.83.9-1.34,2.22-1.51,3.97Z"/>
  <path class="cls-1" d="M115.67,67.26v-.51c-.7.8-1.39,1.45-2.07,1.95-.68.5-1.42.88-2.21,1.14-.79.26-1.66.39-2.6.39-1.24,0-2.4-.26-3.46-.79-1.06-.53-1.98-1.28-2.75-2.26s-1.36-2.13-1.76-3.45c-.4-1.32-.6-2.75-.6-4.28,0-3.25.79-5.78,2.38-7.6s3.68-2.72,6.27-2.72c1.5,0,2.76.26,3.79.77,1.03.51,2.03,1.3,3.01,2.37v-7.67c0-1.07.21-1.87.64-2.42.42-.55,1.03-.82,1.82-.82s1.39.25,1.82.75.64,1.24.64,2.22v22.93c0,.99-.23,1.73-.69,2.23s-1.05.74-1.77.74-1.3-.26-1.76-.77c-.46-.51-.69-1.25-.69-2.2ZM105.44,59.62c0,1.41.22,2.61.66,3.6.44.99,1.04,1.74,1.8,2.24s1.59.75,2.49.75,1.75-.24,2.5-.71c.76-.48,1.36-1.21,1.81-2.19.45-.98.68-2.21.68-3.68,0-1.38-.23-2.57-.68-3.57-.45-1-1.06-1.76-1.83-2.29-.77-.53-1.61-.79-2.52-.79s-1.8.27-2.55.81c-.75.54-1.33,1.31-1.74,2.32-.41,1.01-.62,2.18-.62,3.51Z"/>
  <path class="cls-1" d="M140.31,60.93h-10.17c.01,1.18.25,2.22.71,3.12.46.9,1.08,1.58,1.85,2.04s1.62.69,2.54.69c.62,0,1.19-.07,1.7-.22.51-.15,1.01-.37,1.49-.69s.93-.64,1.33-1,.93-.84,1.58-1.45c.27-.23.65-.34,1.14-.34.53,0,.96.15,1.29.44s.5.7.5,1.24c0,.47-.18,1.02-.55,1.65-.37.63-.92,1.23-1.67,1.81-.74.58-1.68,1.06-2.8,1.44-1.12.38-2.42.57-3.88.57-3.34,0-5.94-.95-7.79-2.86s-2.78-4.49-2.78-7.75c0-1.54.23-2.96.69-4.28.46-1.31,1.12-2.44,2-3.38s1.96-1.66,3.24-2.16,2.7-.75,4.27-.75c2.03,0,3.77.43,5.23,1.29,1.45.86,2.54,1.96,3.27,3.32s1.09,2.74,1.09,4.15c0,1.31-.37,2.16-1.12,2.54s-1.8.58-3.16.58ZM130.14,57.98h9.43c-.13-1.78-.61-3.11-1.44-3.99-.83-.88-1.93-1.32-3.29-1.32s-2.36.45-3.19,1.34c-.83.9-1.34,2.22-1.51,3.97Z"/>
  <path class="cls-1" d="M148.97,67.07v-22.55c0-1.04.23-1.83.69-2.36s1.09-.8,1.88-.8,1.42.26,1.9.79.72,1.32.72,2.37v22.55c0,1.05-.24,1.84-.73,2.37-.49.53-1.12.79-1.89.79s-1.38-.27-1.86-.82c-.48-.55-.71-1.33-.71-2.34Z"/>
  <path class="cls-1" d="M162.17,46.67c-.72,0-1.34-.22-1.86-.67-.51-.44-.77-1.07-.77-1.89,0-.74.26-1.34.79-1.82.53-.48,1.14-.71,1.84-.71s1.27.22,1.79.65.78,1.06.78,1.89-.25,1.43-.76,1.88-1.11.68-1.81.68ZM164.74,52.04v15.02c0,1.04-.25,1.83-.74,2.36s-1.12.8-1.89.8-1.38-.27-1.86-.82c-.48-.55-.71-1.33-.71-2.34v-14.87c0-1.03.24-1.8.71-2.32.48-.52,1.09-.78,1.86-.78s1.39.26,1.89.78.74,1.24.74,2.17Z"/>
  <path class="cls-1" d="M173.79,52.33l4.21,11.81,4.53-12.32c.36-.99.71-1.69,1.05-2.1.34-.41.86-.62,1.56-.62.66,0,1.22.22,1.69.67.46.44.69.96.69,1.54,0,.23-.04.5-.12.8-.08.3-.18.59-.29.86-.11.27-.23.57-.37.91l-4.99,12.38c-.14.36-.32.81-.54,1.35-.22.55-.47,1.01-.74,1.4-.27.39-.61.69-1.01.9-.4.22-.89.32-1.46.32-.74,0-1.32-.17-1.76-.5-.44-.34-.76-.71-.97-1.1-.21-.4-.56-1.19-1.06-2.37l-4.95-12.24c-.11-.3-.23-.61-.35-.91-.12-.3-.22-.62-.3-.93-.08-.32-.12-.59-.12-.82,0-.36.11-.71.32-1.06.22-.35.51-.63.89-.86s.79-.33,1.24-.33c.86,0,1.46.25,1.78.74.32.5.68,1.33,1.08,2.49Z"/>
  <path class="cls-1" d="M205.25,60.93h-10.17c.01,1.18.25,2.22.71,3.12.46.9,1.08,1.58,1.85,2.04.77.46,1.62.69,2.54.69.62,0,1.19-.07,1.71-.22.51-.15,1.01-.37,1.49-.69s.93-.64,1.33-1,.93-.84,1.58-1.45c.27-.23.65-.34,1.14-.34.53,0,.96.15,1.29.44s.49.7.49,1.24c0,.47-.18,1.02-.55,1.65-.37.63-.92,1.23-1.67,1.81-.74.58-1.68,1.06-2.8,1.44s-2.42.57-3.88.57c-3.34,0-5.94-.95-7.79-2.86s-2.78-4.49-2.78-7.75c0-1.54.23-2.96.69-4.28.46-1.31,1.12-2.44,2-3.38.88-.94,1.96-1.66,3.24-2.16,1.28-.5,2.7-.75,4.27-.75,2.03,0,3.77.43,5.23,1.29,1.46.86,2.54,1.96,3.27,3.32.72,1.36,1.09,2.74,1.09,4.15,0,1.31-.38,2.16-1.12,2.54-.75.39-1.8.58-3.16.58ZM195.08,57.98h9.43c-.13-1.78-.61-3.11-1.44-3.99s-1.93-1.32-3.29-1.32-2.36.45-3.19,1.34c-.83.9-1.34,2.22-1.51,3.97Z"/>
  <path class="cls-1" d="M219.07,62.72v4.34c0,1.05-.25,1.84-.74,2.37-.5.53-1.12.79-1.89.79s-1.37-.27-1.85-.8c-.48-.53-.72-1.32-.72-2.36v-14.47c0-2.34.84-3.5,2.53-3.5.86,0,1.49.27,1.87.82s.59,1.35.63,2.42c.62-1.07,1.26-1.87,1.91-2.42.65-.55,1.53-.82,2.62-.82s2.15.27,3.18.82,1.54,1.27,1.54,2.17c0,.63-.22,1.16-.66,1.57-.44.41-.91.62-1.42.62-.19,0-.65-.12-1.38-.35-.73-.23-1.37-.35-1.93-.35-.76,0-1.38.2-1.87.6-.48.4-.86.99-1.12,1.78-.27.79-.45,1.72-.55,2.81-.1,1.08-.15,2.41-.15,3.97Z"/>
  <path class="cls-1" d="M235.79,70.87l.48-1.16-6.4-16.11c-.39-.93-.59-1.6-.59-2.02,0-.44.12-.86.34-1.24s.54-.69.94-.91c.4-.23.82-.34,1.25-.34.75,0,1.31.24,1.7.71.38.48.72,1.16,1.01,2.05l4.4,12.8,4.17-11.9c.33-.96.63-1.72.89-2.27.27-.55.55-.91.85-1.1.3-.19.72-.29,1.27-.29.39,0,.77.1,1.13.31.36.21.64.49.84.85.2.36.3.73.3,1.12-.05.24-.13.58-.25,1.03s-.25.9-.42,1.35l-6.78,17.75c-.58,1.56-1.16,2.79-1.71,3.68s-1.3,1.57-2.22,2.05c-.92.48-2.16.71-3.72.71s-2.67-.17-3.43-.5-1.14-.93-1.14-1.81c0-.6.18-1.06.54-1.38.36-.32.9-.49,1.61-.49.28,0,.55.04.82.11.33.08.62.11.86.11.6,0,1.07-.09,1.41-.27.34-.18.65-.49.92-.92.27-.44.59-1.08.94-1.93Z"/>
  <path class="cls-1" d="M36.51,96.35h1.24v-1.56c0-1.62.21-2.92.62-3.88.41-.96,1.11-1.66,2.09-2.09.98-.44,2.33-.66,4.05-.66,3.03,0,4.55.74,4.55,2.23,0,.48-.16.9-.48,1.24s-.69.51-1.12.51c-.2,0-.55-.04-1.05-.11s-.91-.11-1.26-.11c-.94,0-1.54.28-1.81.83-.27.55-.4,1.34-.4,2.37v1.24h1.28c1.98,0,2.97.6,2.97,1.79,0,.85-.26,1.39-.79,1.62-.53.23-1.25.34-2.18.34h-1.28v13.77c0,1.03-.24,1.81-.73,2.35-.49.54-1.12.81-1.9.81s-1.35-.27-1.84-.81c-.49-.54-.73-1.32-.73-2.35v-13.77h-1.43c-.77,0-1.37-.17-1.79-.52s-.63-.8-.63-1.36c0-1.24.87-1.87,2.61-1.87Z"/>
  <path class="cls-1" d="M55.07,109.52v4.34c0,1.05-.25,1.84-.74,2.37-.5.53-1.12.79-1.89.79s-1.36-.27-1.85-.8-.72-1.32-.72-2.36v-14.47c0-2.34.84-3.5,2.53-3.5.86,0,1.49.27,1.87.82s.59,1.35.63,2.42c.62-1.07,1.26-1.87,1.91-2.42s1.53-.82,2.62-.82,2.15.27,3.18.82,1.54,1.27,1.54,2.17c0,.63-.22,1.16-.66,1.57-.44.41-.91.62-1.42.62-.19,0-.65-.12-1.38-.35s-1.37-.35-1.93-.35c-.76,0-1.38.2-1.87.6-.48.4-.86.99-1.12,1.78s-.45,1.72-.55,2.81c-.1,1.08-.15,2.41-.15,3.97Z"/>
  <path class="cls-1" d="M84.97,106.46c0,1.55-.24,2.98-.72,4.28s-1.18,2.43-2.09,3.37-2.01,1.66-3.28,2.16c-1.27.5-2.7.75-4.28.75s-2.99-.25-4.25-.76-2.35-1.23-3.27-2.18-1.62-2.06-2.09-3.35c-.48-1.29-.71-2.71-.71-4.28s.24-3.02.72-4.32,1.17-2.42,2.08-3.35,1.99-1.64,3.28-2.14,2.7-.75,4.25-.75,3,.25,4.28.76,2.38,1.23,3.29,2.17,1.61,2.06,2.08,3.35c.48,1.29.71,2.72.71,4.28ZM79.75,106.46c0-2.12-.47-3.77-1.4-4.95-.93-1.18-2.19-1.77-3.76-1.77-1.02,0-1.91.26-2.69.79s-1.37,1.3-1.79,2.33-.63,2.23-.63,3.6.21,2.55.62,3.56c.41,1.02,1,1.79,1.77,2.33.77.54,1.67.81,2.71.81,1.57,0,2.83-.59,3.76-1.78.93-1.19,1.4-2.83,1.4-4.92Z"/>
  <path class="cls-1" d="M106.36,106.84v6.91c0,1.09-.25,1.91-.74,2.46s-1.15.82-1.96.82-1.43-.27-1.91-.82c-.49-.55-.73-1.36-.73-2.46v-8.28c0-1.31-.04-2.32-.13-3.05s-.33-1.32-.72-1.78-1.02-.7-1.87-.7c-1.7,0-2.82.58-3.36,1.75-.54,1.17-.81,2.84-.81,5.03v7.03c0,1.08-.24,1.9-.73,2.45-.49.55-1.13.83-1.93.83s-1.43-.28-1.93-.83c-.5-.55-.75-1.37-.75-2.45v-14.87c0-.98.23-1.72.68-2.23.45-.51,1.04-.76,1.78-.76s1.3.24,1.78.71c.48.48.71,1.13.71,1.97v.5c.9-1.08,1.87-1.87,2.89-2.38s2.17-.76,3.43-.76,2.43.26,3.37.78,1.71,1.31,2.32,2.36c.88-1.07,1.82-1.86,2.82-2.37,1-.51,2.11-.77,3.33-.77,1.42,0,2.65.28,3.68.84s1.8,1.36,2.3,2.4c.44.94.67,2.42.67,4.44v10.15c0,1.09-.25,1.91-.74,2.46s-1.15.82-1.96.82-1.43-.28-1.93-.83c-.5-.55-.75-1.37-.75-2.45v-8.74c0-1.12-.05-2.01-.14-2.69-.09-.67-.35-1.24-.77-1.69s-1.05-.69-1.9-.69c-.69,0-1.34.2-1.95.61-.62.41-1.1.95-1.44,1.64-.38.88-.57,2.42-.57,4.65Z"/>
  <path class="cls-1" d="M156.27,104.04c-.84.99-1.77,1.74-2.81,2.24-1.04.5-2.18.75-3.44.75s-2.31-.23-3.34-.7c-1.04-.46-1.93-1.11-2.69-1.94-.76-.83-1.34-1.8-1.74-2.91s-.61-2.28-.61-3.49c0-1.31.23-2.55.69-3.72.46-1.17,1.11-2.19,1.96-3.06s1.86-1.54,3.04-2.02c1.17-.48,2.47-.72,3.89-.72,1.64,0,3.1.3,4.38.9s2.36,1.46,3.24,2.6,1.55,2.57,2.02,4.29.7,3.68.7,5.87c0,2.44-.25,4.59-.74,6.45s-1.22,3.42-2.16,4.68-2.08,2.2-3.4,2.82c-1.32.62-2.82.92-4.49.92s-3.08-.31-4.3-.94c-1.22-.63-2.15-1.41-2.78-2.34-.63-.93-.95-1.83-.95-2.69,0-.53.2-1.01.59-1.43s.9-.63,1.5-.63c.56,0,1.06.16,1.5.47.44.31.78.78,1.01,1.4.28.76.74,1.37,1.39,1.84.65.46,1.38.7,2.19.7.72,0,1.41-.18,2.06-.55s1.2-.89,1.66-1.56c.91-1.36,1.46-3.76,1.64-7.2ZM155.83,98.21c0-.86-.12-1.66-.35-2.39-.24-.73-.57-1.36-.99-1.89-.43-.53-.93-.95-1.52-1.26-.59-.3-1.23-.46-1.93-.46-1.21,0-2.23.52-3.07,1.55-.84,1.04-1.26,2.4-1.26,4.1s.42,3.03,1.26,4.04,1.9,1.5,3.18,1.5c.79,0,1.54-.21,2.26-.62.72-.41,1.3-1.01,1.75-1.8s.68-1.71.68-2.78Z"/>
  <path class="cls-1" d="M181.61,93.34h-9.04l-1.09,6.17c1.8-.96,3.47-1.45,4.99-1.45,1.22,0,2.36.23,3.42.69,1.06.46,1.99,1.09,2.79,1.9s1.43,1.76,1.89,2.87.69,2.29.69,3.56c0,1.84-.41,3.52-1.24,5.03s-2.02,2.71-3.57,3.6c-1.56.89-3.35,1.33-5.38,1.33-2.27,0-4.12-.42-5.53-1.26-1.42-.84-2.42-1.8-3.01-2.89-.59-1.08-.89-2.03-.89-2.85,0-.5.21-.96.62-1.41.41-.44.93-.67,1.55-.67,1.07,0,1.86.62,2.38,1.85.51,1.13,1.19,2.01,2.06,2.64.86.63,1.83.94,2.89.94.98,0,1.83-.25,2.57-.76s1.3-1.21,1.7-2.09c.4-.89.6-1.9.6-3.03,0-1.22-.22-2.26-.65-3.12s-1.01-1.51-1.73-1.93c-.72-.42-1.53-.64-2.42-.64-1.09,0-1.87.13-2.34.4s-1.15.73-2.03,1.4c-.88.67-1.61,1-2.18,1-.62,0-1.17-.23-1.66-.68-.48-.45-.72-.96-.72-1.53,0-.06.07-.5.21-1.29l1.6-9.12c.18-1.09.51-1.89.99-2.38s1.27-.74,2.36-.74h10.05c1.98,0,2.97.76,2.97,2.27,0,.66-.24,1.19-.72,1.6s-1.19.61-2.13.61Z"/>
  <path class="cls-1" d="M209.25,86.22v2.06c1.36.14,2.52.42,3.49.84.97.42,1.82,1.05,2.54,1.9.57.65,1.01,1.31,1.32,2,.31.69.47,1.31.47,1.89,0,.63-.23,1.18-.7,1.65s-1.03.7-1.69.7c-1.24,0-2.05-.67-2.42-2.02-.42-1.59-1.43-2.64-3.03-3.16v7.92c1.57.43,2.83.83,3.76,1.18.93.36,1.77.87,2.5,1.54.79.7,1.39,1.53,1.82,2.5.42.97.64,2.03.64,3.19,0,1.45-.34,2.8-1.02,4.07-.68,1.26-1.68,2.29-3,3.09-1.32.8-2.89,1.28-4.7,1.43v4.74c0,.75-.07,1.29-.22,1.64-.15.34-.47.51-.96.51-.46,0-.78-.14-.96-.42-.18-.28-.28-.71-.28-1.29v-5.14c-1.48-.17-2.78-.51-3.89-1.05-1.11-.53-2.04-1.2-2.78-1.99-.74-.79-1.29-1.62-1.65-2.48-.36-.86-.53-1.7-.53-2.52,0-.61.24-1.16.71-1.65.48-.49,1.07-.73,1.78-.73.57,0,1.05.13,1.45.4.39.27.67.64.82,1.12.34,1.04.64,1.84.89,2.39.25.55.64,1.06,1.15,1.51.51.46,1.2.81,2.05,1.05v-8.85c-1.7-.47-3.12-.99-4.27-1.57s-2.07-1.4-2.78-2.47c-.71-1.07-1.07-2.44-1.07-4.11,0-2.18.69-3.97,2.08-5.37,1.39-1.4,3.4-2.21,6.03-2.44v-2.02c0-1.07.4-1.6,1.2-1.6s1.22.52,1.22,1.56ZM206.83,99.28v-7.29c-1.07.32-1.9.74-2.49,1.26s-.89,1.31-.89,2.36.28,1.76.84,2.28c.56.51,1.41.98,2.55,1.4ZM209.25,104.93v8.34c1.28-.25,2.27-.77,2.97-1.54s1.05-1.68,1.05-2.7c0-1.1-.34-1.96-1.02-2.56-.68-.6-1.68-1.11-3-1.53Z"/>
</svg>