<?xml version="1.0" encoding="UTF-8"?>
<svg id="Layer_1" data-name="Layer 1" xmlns="http://www.w3.org/2000/svg" viewBox="0 0 50.78 21.61">
  <defs>
    <style>
      .cls-1 {
        fill: #d0e06c;
      }
    </style>
  </defs>
  <path class="cls-1" d="M11.65,17.13c0-1.27.5-2.22,1.82-2.22s1.49.71,1.49,1.66c0,1.58-.74,2.22-1.9,2.22s-1.4-.55-1.4-1.66Z"/>
  <path d="M10.1,16.49c1.49-1.15,2.79-2.55,3.91-4.03l-1.21.25c1.77,1.89,3.76,3.61,5.99,5.17s.62.1.9.02.45,0,.17-.17c-2.23-1.48-4.08-3.28-5.85-5.26s-1.02-.25-1.12,0c-1.02,1.48-2.23,2.72-3.72,3.87s-.09.33.09.41.74,0,.93-.25h-.09Z"/>
  <g>
    <path d="M0,0h1.49v3.92L6.14,0h.97L2.69,3.72l5.6,5.12h-1.89L1.49,4.35v4.49H0V0Z"/>
    <path d="M12.29,8.99c-.52,0-1.01-.09-1.45-.27-.44-.18-.82-.43-1.14-.74-.32-.31-.57-.68-.75-1.1-.18-.42-.27-.87-.27-1.35s.09-.97.27-1.42c.18-.44.43-.83.75-1.16.32-.33.7-.59,1.14-.78s.92-.28,1.45-.28,1,.09,1.44.26c.44.17.82.41,1.14.71.32.3.57.66.75,1.06.18.41.27.84.27,1.31,0,.52-.09,1-.27,1.46-.18.46-.43.85-.75,1.19-.32.34-.7.61-1.14.81-.44.2-.92.3-1.44.3ZM12.55,8.49c.27,0,.51-.07.73-.21s.41-.32.57-.56c.16-.23.28-.5.37-.81s.13-.63.13-.97c0-.49-.04-.96-.13-1.39s-.22-.81-.41-1.13c-.19-.32-.44-.57-.75-.76s-.68-.28-1.12-.28c-.23,0-.45.07-.66.2-.21.13-.4.31-.56.54s-.29.49-.39.8c-.1.3-.15.63-.15.97,0,.5.05.96.16,1.4.1.44.26.82.46,1.14.2.32.45.58.74.77s.62.28,1,.28Z"/>
    <path d="M18.79,1.89h.39v1.41c.17-.19.37-.37.59-.54s.44-.32.67-.45c.23-.13.46-.23.69-.31s.45-.11.66-.11.4.04.61.11c.21.07.4.17.57.3.18.13.33.28.45.46.13.18.21.37.25.58.11-.2.27-.39.46-.56.2-.18.42-.33.66-.46.24-.13.5-.23.76-.31s.53-.11.79-.11.5.06.72.17c.22.11.42.27.59.46s.3.42.4.68c.1.26.15.54.15.83v4.81h-1.35v-4.63c0-.19-.03-.37-.1-.54s-.15-.32-.26-.45-.24-.23-.39-.31c-.15-.08-.31-.11-.47-.11-.19,0-.38.03-.57.08-.19.05-.38.12-.55.21-.17.09-.33.19-.47.31s-.26.24-.34.38v5.07h-1.35v-4.63c0-.19-.03-.37-.1-.54-.07-.17-.16-.32-.27-.45-.11-.13-.24-.23-.39-.31-.15-.08-.31-.11-.47-.11-.17,0-.35.03-.54.08s-.36.12-.54.21c-.18.09-.34.19-.49.31-.15.12-.28.24-.37.37v5.07h-1.36V2.27l.97-.38Z"/>
    <path d="M33.75,8.99c-.52,0-1.01-.09-1.45-.27-.44-.18-.82-.43-1.14-.74-.32-.31-.57-.68-.75-1.1-.18-.42-.27-.87-.27-1.35s.09-.97.27-1.42c.18-.44.43-.83.75-1.16.32-.33.7-.59,1.14-.78.44-.19.92-.28,1.45-.28s1,.09,1.44.26.82.41,1.14.71.57.66.75,1.06.27.84.27,1.31c0,.52-.09,1-.27,1.46s-.43.85-.75,1.19c-.32.34-.7.61-1.14.81s-.92.3-1.44.3ZM34.01,8.49c.27,0,.51-.07.73-.21.22-.14.41-.32.57-.56s.28-.5.37-.81c.09-.31.13-.63.13-.97,0-.49-.04-.96-.13-1.39-.08-.43-.22-.81-.41-1.13-.19-.32-.44-.57-.75-.76s-.68-.28-1.12-.28c-.23,0-.45.07-.66.2-.21.13-.4.31-.56.54s-.29.49-.39.8c-.1.3-.15.63-.15.97,0,.5.05.96.16,1.4.1.44.26.82.46,1.14.2.32.45.58.74.77s.62.28,1,.28Z"/>
    <path d="M40.24,1.89h.21l.18,1.39c.11-.2.24-.39.4-.56s.34-.32.53-.44.4-.22.61-.29.43-.1.66-.1c.2,0,.4.03.59.08.19.05.37.14.54.25l-.43,1.14c-.09-.1-.18-.18-.28-.24s-.2-.11-.3-.14c-.1-.03-.21-.05-.31-.06s-.21-.01-.32-.01c-.17,0-.33.02-.5.07s-.32.12-.46.22c-.15.1-.28.22-.41.37-.12.15-.23.32-.33.52v4.75h-1.35V2.26l.97-.37Z"/>
    <path d="M49.42,8.84c-.18-.09-.33-.21-.45-.38-.12-.16-.18-.35-.18-.56-.16.12-.32.24-.47.37s-.32.25-.5.35c-.18.1-.38.19-.6.26-.22.07-.47.1-.76.1-.27,0-.51-.04-.72-.13-.22-.09-.4-.21-.55-.36-.15-.15-.26-.33-.35-.54s-.12-.43-.12-.67c0-.29.06-.56.17-.79.12-.24.27-.45.48-.63s.44-.35.7-.49c.27-.14.55-.27.85-.39.3-.11.61-.21.93-.3.32-.09.63-.17.93-.25v-.43c0-.31-.02-.57-.07-.79-.04-.21-.11-.39-.21-.52-.09-.13-.21-.22-.36-.28s-.32-.08-.52-.08-.37.04-.53.11c-.16.08-.3.18-.42.3-.12.13-.22.28-.3.45-.08.17-.13.35-.16.54h-1.24c.04-.29.14-.56.3-.79s.38-.43.63-.58c.25-.16.54-.28.86-.36s.66-.13,1-.13c.44,0,.82.04,1.12.13.3.09.54.21.73.36.18.16.31.35.39.57.08.22.12.47.12.74v4.21c0,.21.06.39.18.56.12.16.27.29.45.38h-1.36ZM48.79,4.87c-.2.06-.4.13-.61.21-.21.08-.41.17-.61.27s-.39.21-.57.32c-.18.12-.34.24-.48.37s-.25.27-.33.42c-.08.15-.12.3-.12.46,0,.17.03.33.09.48s.14.28.25.39c.1.11.22.2.35.27.13.06.27.1.41.1.15,0,.29-.02.43-.06.14-.04.27-.09.4-.16s.26-.15.39-.24.26-.18.39-.29v-2.55Z"/>
  </g>
  <g>
    <path d="M21.55,18.27c.22,0,.43-.03.65-.09.21-.06.4-.15.57-.27.17-.12.3-.26.41-.43.1-.17.15-.37.15-.6,0-.27-.07-.51-.21-.72-.14-.21-.32-.4-.55-.58-.23-.17-.49-.34-.78-.5-.29-.16-.59-.31-.89-.47s-.6-.32-.89-.49-.55-.36-.78-.57c-.23-.21-.41-.45-.55-.71-.14-.26-.21-.56-.21-.9s.06-.65.19-.94.31-.54.56-.75.55-.38.9-.5c.36-.12.77-.18,1.23-.18.42,0,.79.04,1.12.13.33.09.62.22.87.39.25.17.46.39.63.64.17.25.31.55.42.88l-.76.35c-.09-.27-.2-.52-.34-.74-.14-.22-.3-.42-.49-.58s-.41-.28-.66-.37c-.25-.09-.53-.13-.85-.13-.28,0-.52.04-.73.12-.21.08-.38.18-.52.31-.14.13-.24.27-.31.43-.07.16-.1.32-.1.48,0,.23.07.44.21.64.14.19.33.38.57.55s.5.34.8.5c.3.16.61.32.92.49.31.16.62.34.92.51s.57.37.8.58c.24.21.42.44.57.69.14.25.21.53.21.84,0,.35-.07.68-.2.99-.13.31-.33.58-.6.81-.27.23-.6.41-.99.54-.4.13-.86.2-1.38.2-.43,0-.95-.07-1.29-.16s-.48-.21-.74-.38c-.26-.18-.47-.39-.66-.65s-.33-.55-.45-.88l-.22-.18c.09.29.94.54,1.1.77s.62.33.83.48.45.24.71.32c.26.08.53.13.82.13Z"/>
    <path d="M28.21,13.18c.4-.46.83-.81,1.28-1.04.45-.23.9-.34,1.36-.34.24,0,.46.05.67.16.21.11.39.25.54.44s.28.41.37.66c.09.25.13.52.13.8v4.89h-1.35v-4.66c0-.45-.1-.8-.31-1.03s-.47-.35-.79-.35c-.14,0-.29.02-.45.07-.16.05-.32.12-.49.2s-.33.19-.49.31c-.17.12-.32.25-.47.4v5.05h-1.36v-9.92l.97-.39h.38s0,4.73,0,4.73Z"/>
    <path d="M38.1,18.88c-.52,0-1.01-.09-1.45-.27-.44-.18-.82-.43-1.14-.74s-.57-.68-.75-1.1c-.18-.42-.27-.87-.27-1.35s.09-.97.27-1.42c.18-.44.43-.83.75-1.16s.7-.59,1.14-.78c.44-.19.92-.28,1.45-.28s1,.09,1.44.26c.44.17.82.41,1.14.71.32.3.57.66.75,1.06.18.41.27.84.27,1.31,0,.52-.09,1-.27,1.46-.18.46-.43.85-.75,1.19s-.7.61-1.14.81c-.44.2-.92.3-1.44.3ZM38.36,18.38c.27,0,.51-.07.73-.21.22-.14.41-.32.57-.56s.28-.5.37-.81.13-.63.13-.97c0-.49-.04-.96-.13-1.39-.08-.43-.22-.81-.41-1.13-.19-.32-.44-.57-.75-.76s-.68-.28-1.12-.28c-.23,0-.45.07-.66.2-.21.13-.4.31-.56.54s-.29.49-.39.8-.15.63-.15.97c0,.5.05.96.16,1.4.1.44.26.82.46,1.14.2.33.45.58.74.77.29.19.62.28,1,.28Z"/>
    <path d="M44.59,11.78h.39v1.53c.14-.17.29-.35.46-.53.17-.18.35-.35.55-.5.2-.15.43-.27.67-.36.24-.09.51-.14.8-.14.4,0,.77.08,1.1.25s.61.4.84.69c.23.29.41.63.54,1.02s.19.8.19,1.24c0,.56-.08,1.09-.23,1.56s-.38.89-.67,1.24-.64.62-1.05.81c-.41.19-.88.29-1.39.29-.19,0-.36,0-.52-.03-.16-.02-.31-.05-.46-.09s-.29-.09-.42-.15c-.14-.06-.27-.14-.41-.23v3.23h-1.36v-9.45l.97-.38ZM44.98,16.9c0,.2.04.4.13.58.09.18.21.34.37.47s.35.24.57.32c.22.08.47.12.73.12s.49-.06.72-.19.42-.31.59-.55c.17-.24.3-.52.39-.85.1-.33.14-.69.14-1.09,0-.5-.04-.94-.13-1.32-.09-.38-.21-.69-.37-.94-.16-.25-.35-.44-.56-.56s-.45-.19-.71-.19c-.2,0-.38.03-.56.09s-.35.14-.51.24-.31.22-.44.35c-.13.13-.26.27-.36.42v3.09Z"/>
  </g>
</svg>