<?xml version="1.0" encoding="UTF-8"?>
<svg id="Layer_1" xmlns="http://www.w3.org/2000/svg" version="1.1" viewBox="0 0 55.7 24.3">
  <!-- Generator: Adobe Illustrator 29.2.1, SVG Export Plug-In . SVG Version: 2.1.0 Build 116)  -->
  <defs>
    <style>
      .st0 {
        fill: #231f20;
      }

      .st1 {
        fill: #d0e06c;
      }
    </style>
  </defs>
  <path class="st1" d="M12.8,20c0-1.6.6-2.8,2.2-2.8s1.8.9,1.8,2.1c0,2-.9,2.8-2.3,2.8s-1.7-.7-1.7-2.1Z"/>
  <path d="M11.3,19c1.6-1.4,3-3.1,4.2-4.9l-1.3.3c1.9,2.3,4,4.4,6.4,6.3s.7.1,1,0,.7-.4.4-.6c-2.4-1.8-4.5-3.9-6.4-6.3s-1.2,0-1.3.3c-1.1,1.8-2.4,3.3-4,4.7s-.1.4.1.5.8,0,1-.3h0Z"/>
  <g>
    <path class="st0" d="M4.4,12.5V4.4h1.2v8.1h-1.2ZM11.6,12.5l-5.6-4h0s5.7-4.1,5.7-4.1h1.8l-5.8,4,5.8,4.1h-1.9Z"/>
    <path class="st0" d="M16.3,12.7c-2,0-2.6-2.4-2.6-4.3s.6-4.3,2.6-4.3,2.6,2.4,2.6,4.3-.6,4.3-2.6,4.3ZM16.3,5.2c-1.2,0-1.4,1.9-1.4,3.2s.2,3.2,1.4,3.2,1.4-1.9,1.4-3.2-.2-3.2-1.4-3.2Z"/>
    <path class="st0" d="M25.3,12.5v-5.3l-1.9,2.5h0l-1.8-2.5v5.3h-1.1V4.2h.2l2.9,3.7,2.9-3.7h.2v8.2h-1.1Z"/>
    <path class="st0" d="M30.5,12.7c-2,0-2.6-2.4-2.6-4.3s.6-4.3,2.6-4.3,2.6,2.4,2.6,4.3-.6,4.3-2.6,4.3ZM30.5,5.2c-1.2,0-1.4,1.9-1.4,3.2s.2,3.2,1.4,3.2,1.4-1.9,1.4-3.2-.2-3.2-1.4-3.2Z"/>
    <path class="st0" d="M38.2,12.5l-1.8-3.4h-.6v3.4h-1.1V4.4h2.2c1.4,0,2.4.8,2.4,2.3s-.8,2-1.8,2.2l2,3.6h-1.3ZM36.7,5.4h-1v2.7h.6c1,0,1.8-.4,1.8-1.4s-.6-1.2-1.5-1.2Z"/>
    <path class="st0" d="M44.2,12.5l-.4-1.8h-2.2l-.4,1.8h-1.2l2.1-8.2h1.2l2.1,8.2h-1.2ZM42.7,5.9l-.9,3.7h1.7l-.9-3.7Z"/>
  </g>
  <g>
    <path class="st0" d="M25.3,21.5c-1.5,0-3.1-.2-4.4-.7l.3-1.1c1.1.5,2.7.7,4.1.7s3.7-.4,3.7-1.5-1.1-1.1-3.5-1.3c-2.9-.2-4.5-.7-4.5-2.3s2-2.3,5-2.3,3,.2,4.1.6l-.3,1.1c-1.1-.5-2.4-.6-3.8-.6s-3.7.2-3.7,1.2.9,1,3.3,1.2c2.8.2,4.7.6,4.7,2.3s-2.3,2.7-5,2.7Z"/>
    <path class="st0" d="M35.6,21.3v-4h-2.6v4h-1.1v-8.1h1.1v3.1h2.6v-3.1h1.1v8.1h-1.1Z"/>
    <path class="st0" d="M40.8,21.5c-2,0-2.6-2.4-2.6-4.3s.6-4.3,2.6-4.3,2.6,2.4,2.6,4.3-.6,4.3-2.6,4.3ZM40.8,14c-1.2,0-1.4,1.9-1.4,3.2s.2,3.2,1.4,3.2,1.4-1.9,1.4-3.2-.2-3.2-1.4-3.2Z"/>
    <path class="st0" d="M47.1,18.5h-1.1v2.8h-1.1v-8.1h2.3c1.6,0,2.5,1.1,2.5,2.6s-.9,2.7-2.5,2.7ZM47,14.2h-.9v3.3h.9c1,0,1.5-.7,1.5-1.7s-.5-1.5-1.5-1.5Z"/>
    <path class="st0" d="M52.3,21.3c-.5,0-.9-.4-.9-.9s.4-.9.9-.9.9.4.9.9-.4.9-.9.9Z"/>
  </g>
</svg>